<svg id="Capa_1" enable-background="new 0 0 512 512" height="512" viewBox="0 0 512 512" width="512" xmlns="http://www.w3.org/2000/svg"><g><path d="m13.162 498.845c17.532 17.53 46.084 17.549 63.633 0l116.254-116.25c-25.243-16.734-46.91-38.401-63.644-63.644l-116.243 116.261c-17.549 17.549-17.549 46.084 0 63.633z"/><path d="m317 90c-57.891 0-105 47.109-105 105s47.109 105 105 105 105-47.109 105-105-47.109-105-105-105zm40.605 124.395c5.859 5.859 5.859 15.352 0 21.211s-15.352 5.859-21.211 0l-19.394-19.395-19.395 19.395c-5.859 5.859-15.352 5.859-21.211 0s-5.859-15.352 0-21.211l19.395-19.395-19.395-19.395c-5.859-5.859-5.859-15.352 0-21.211s15.352-5.859 21.211 0l19.395 19.395 19.395-19.395c5.859-5.859 15.352-5.859 21.211 0s5.859 15.352 0 21.211l-19.395 19.395z"/><path d="m317 0c-107.52 0-195 87.48-195 195s87.48 195 195 195 195-87.48 195-195-87.48-195-195-195zm0 330c-74.443 0-135-60.557-135-135s60.557-135 135-135 135 60.557 135 135-60.557 135-135 135z"/></g></svg>